<svg width="174" height="54" viewBox="0 0 174 54" fill="none" xmlns="http://www.w3.org/2000/svg">
<g clip-path="url(#clip0_2566_949)">
<path fill-rule="evenodd" clipRule="evenodd" d="M14.3744 1.15081C14.4845 1.28521 14.4759 1.29602 14.2952 1.24942C14.1127 1.20237 14.0924 1.22977 14.0924 1.52228C14.0924 1.77512 14.1165 1.82326 14.2006 1.73915C14.3621 1.57762 14.4713 1.60863 14.3749 1.78873C14.3285 1.87554 14.2854 1.9765 14.2791 2.01318C14.2729 2.04978 14.2422 2.14641 14.211 2.2279C14.1797 2.30939 14.2004 2.45019 14.257 2.54078C14.3136 2.63137 14.336 2.76802 14.3067 2.84428C14.2457 3.00293 14.0023 3.03403 14.0023 2.88322C14.0023 2.76225 13.6668 2.83563 13.1203 3.07612C12.5584 3.32347 12.4078 3.71495 12.6088 4.40624C12.6898 4.68523 12.8541 5.10646 12.9736 5.34244C13.2967 5.98001 13.2646 6.24133 12.8157 6.62551C12.378 7.00014 11.1582 7.65077 11.0661 7.55874C11.0314 7.52403 11.0897 7.29417 11.1957 7.048C11.5182 6.2983 11.4337 5.97749 10.8527 5.74501C10.6544 5.66569 10.4312 5.62414 10.3567 5.6528C10.2512 5.69327 10.2238 5.63621 10.2329 5.39473C10.2393 5.22418 10.2155 5.03777 10.18 4.98035C10.1446 4.92302 10.1586 4.87606 10.211 4.87606C10.2635 4.87606 10.3065 4.79493 10.3065 4.69577C10.3065 4.59662 10.2635 4.51549 10.211 4.51549C10.1586 4.51549 10.1406 4.47493 10.1713 4.42535C10.2028 4.37433 10.1281 4.33521 9.99912 4.33521C9.82371 4.33521 9.78459 4.36965 9.82885 4.48521C9.86761 4.58607 9.85192 4.61384 9.78098 4.57003C9.71347 4.52829 9.67552 4.57174 9.67552 4.69046C9.67552 4.7925 9.71509 4.87606 9.7634 4.87606C9.81893 4.87606 9.82109 4.95565 9.76935 5.09176C9.72419 5.21039 9.71148 5.39977 9.74096 5.51254C9.78504 5.68101 9.76629 5.70688 9.6364 5.65704C9.54833 5.62323 9.30351 5.67353 9.08446 5.77043C8.50855 6.02517 8.47286 6.28694 8.87741 7.29138C8.97981 7.54576 8.97774 7.60056 8.86299 7.67313C8.78934 7.71973 8.76537 7.7584 8.8098 7.75921C8.85424 7.75993 8.78114 7.86197 8.64746 7.98592C8.51369 8.10986 8.36658 8.21127 8.32061 8.21127C8.04965 8.21127 7.48897 8.53532 7.3735 8.75878C7.2062 9.08221 7.20728 9.30648 7.37783 9.71464C7.5097 10.0302 7.51944 10.0354 7.68962 9.8814C7.89316 9.69724 8.52983 9.60457 8.99387 9.69156C9.37616 9.76331 9.42213 9.92394 9.06022 9.92394C8.92014 9.92394 8.51531 10.0254 8.16052 10.1493C7.37044 10.4253 7.03087 10.4342 6.78209 10.1854L6.59297 9.99633L6.65616 10.208C6.76099 10.5592 7.09704 10.8354 7.47581 10.8821C7.77688 10.9193 7.90407 10.8728 8.35811 10.5599C8.64989 10.3589 8.9744 10.1945 9.07924 10.1947C9.24032 10.195 9.22544 10.2221 8.98269 10.3701C8.62195 10.5901 8.48944 10.8224 8.60591 11.0305C8.72381 11.2411 8.86425 11.2268 8.86425 11.0043C8.86425 10.897 8.98405 10.748 9.15721 10.64C9.39392 10.4924 9.54526 10.467 9.94594 10.5079C10.2186 10.5356 10.5711 10.5606 10.7292 10.5634C11.0571 10.5693 11.2956 10.8306 11.6981 11.6253C11.9953 12.2121 12.0373 12.8893 11.8041 13.3339C11.6058 13.7118 11.096 13.9503 10.7871 13.8095C10.4975 13.6775 10.501 13.9126 10.7931 14.2046L11.0092 14.4207L10.7555 14.4764C10.616 14.5071 10.4795 14.5905 10.4521 14.6618C10.3879 14.829 10.2641 14.8264 10.0919 14.6542C9.96884 14.5312 9.94468 14.5353 9.86012 14.6934C9.67912 15.0315 9.74826 15.4241 10.0361 15.693C10.3948 16.028 10.3795 16.2125 9.97956 16.3796C9.51011 16.5758 8.98973 16.4674 8.61853 16.0962C8.22118 15.6989 8.22677 15.375 8.63953 14.881C9.29044 14.1019 9.17803 13.8212 7.54729 12.1527C6.71818 11.3045 6.43631 11.0659 6.37546 11.1612C6.26909 11.3275 5.74736 10.795 5.32262 10.0865C5.10619 9.72554 4.98639 9.60124 4.91942 9.66821C4.85244 9.73519 4.72967 9.63342 4.50648 9.32586C4.02955 8.66873 3.16663 7.26506 2.66797 6.33535L2.22511 5.50957L1.99029 5.75619C1.29008 6.49156 1.55022 7.85611 2.67383 9.3419C2.8972 9.63721 3.06378 9.89501 3.04413 9.91475C3.02448 9.93449 2.55728 9.51488 2.00588 8.98215C1.28701 8.28771 0.975754 8.04117 0.905805 8.11112C0.759867 8.25706 0.716058 9.22788 0.83874 9.59953C0.897872 9.77864 1.14342 10.1409 1.38454 10.4047L1.82281 10.8842L1.3548 10.7225C1.09735 10.6336 0.754999 10.5595 0.593827 10.5579C0.342695 10.5554 0.30087 10.5863 0.30087 10.7744C0.30087 11.1481 0.463033 11.448 0.935101 11.9471L1.38959 12.4277L0.806019 12.3808C0.0180977 12.3176 -0.0803361 12.3619 0.0456808 12.7232C0.175394 13.0955 0.65296 13.5648 1.18236 13.8405L1.60791 14.062L1.15721 14.0667C0.596441 14.0726 0.0302668 14.2238 0.031078 14.3676C0.032971 14.7254 0.637185 15.2736 1.26538 15.4877L1.69391 15.6337L1.27313 15.776C1.04174 15.8543 0.738413 16.0044 0.599146 16.1097L0.34594 16.301L0.526222 16.5055C0.74292 16.7513 1.34119 17.0389 1.65298 17.0471C1.864 17.0526 1.85742 17.0655 1.55049 17.2485C1.20291 17.4558 0.87101 17.9554 0.972148 18.1191C1.0832 18.2987 0.938346 18.3952 0.696047 18.3031C0.473399 18.2184 0.468441 18.2244 0.530368 18.5063C0.565523 18.6662 0.633219 18.8594 0.680993 18.9359C0.798267 19.1236 1.61729 19.6592 1.78711 19.6592C1.86211 19.6592 1.9234 19.704 1.9234 19.7589C1.9234 19.8137 2.04825 20.0162 2.20077 20.2088C2.50229 20.5895 4.17584 24.5333 4.17648 24.8648C4.17675 24.9764 4.21992 25.0676 4.27238 25.0676C4.32485 25.0676 4.34278 25.1082 4.31214 25.1577C4.28149 25.2073 4.29943 25.2479 4.35189 25.2479C4.40435 25.2479 4.44735 25.3646 4.44735 25.5073C4.44735 25.7853 4.66342 26.3755 4.79493 26.4568C4.98125 26.5719 4.98846 27.074 4.808 27.366C4.59671 27.7079 4.5749 28.0028 4.75581 28.0722C4.82639 28.0992 4.89733 28.211 4.91356 28.3205C4.92987 28.43 5.02425 28.5643 5.1234 28.619C5.22256 28.6736 5.33497 28.7669 5.37309 28.8262C5.41131 28.8856 5.60394 29.0249 5.80126 29.1358C6.03058 29.2647 6.16002 29.4018 6.16002 29.5157C6.16002 29.8785 7.12877 30.5233 7.16284 30.1831C7.19322 29.8806 7.13661 29.2767 7.05864 29.0716C6.92757 28.7268 6.92775 28.7265 7.55288 28.3222C8.70488 27.5772 9.05138 27.4638 10.2905 27.4261C11.5539 27.3877 11.6251 27.3429 11.311 26.7841L11.1188 26.4421L11.4069 26.3844C11.6812 26.3296 12.1093 26.0153 12.1093 25.8689C12.1093 25.831 11.9774 25.8207 11.8164 25.8459C11.3874 25.913 11.1669 25.7132 11.1669 25.2571C11.1669 24.8048 11.3984 24.543 11.8653 24.4673C12.319 24.3936 12.7093 24.5757 13.0213 25.0063C13.3516 25.4623 13.3776 25.9851 13.0816 26.2178C12.6771 26.5356 12.1995 27.0326 12.1995 27.1353C12.1995 27.2061 12.266 27.1947 12.3998 27.1009C12.51 27.0238 12.7229 26.9615 12.8731 26.9625L13.1459 26.9645L12.9206 27.1392C12.7966 27.2352 12.4589 27.4027 12.17 27.5113C11.8811 27.6199 11.374 27.9069 11.0432 28.1489C10.7124 28.3909 10.35 28.6124 10.2377 28.6411C9.97911 28.7074 9.76566 28.5335 9.76566 28.2566C9.76566 27.9784 9.5815 27.9839 9.31261 28.27C9.06202 28.5368 9.02389 29.0517 9.23869 29.2666C9.36543 29.3934 9.35425 29.4313 9.12151 29.6641C8.78258 30.003 8.77023 30.4938 9.0896 30.9268C9.21355 31.0948 9.31622 31.3156 9.31784 31.4175C9.32036 31.5869 9.33983 31.581 9.54319 31.3499C9.66551 31.2108 9.76566 31.0205 9.76566 30.927C9.76566 30.8336 9.80622 30.7321 9.8558 30.7014C9.90637 30.6701 9.94594 30.7411 9.94594 30.863C9.94594 31.2215 10.3184 31.6793 10.7253 31.8211C11.0631 31.9389 11.1234 31.9344 11.4639 31.7659C11.8198 31.5898 11.8367 31.5891 11.8871 31.748C11.9623 31.9848 12.347 32.2631 12.7488 32.3713C13.0197 32.4443 13.1668 32.434 13.4305 32.3239C13.7435 32.1931 13.773 32.1945 13.856 32.3438C14.011 32.6228 14.4332 33 14.5903 33C14.7476 33 15.2969 32.501 15.3639 32.2972C15.3945 32.2041 15.4713 32.2091 15.7422 32.3223C16.0095 32.434 16.1559 32.4445 16.4276 32.3713C16.8294 32.2631 17.2141 31.9848 17.2893 31.748C17.3397 31.5891 17.3566 31.5898 17.7125 31.7659C18.053 31.9344 18.1132 31.9389 18.4511 31.8211C18.858 31.6793 19.2304 31.2215 19.2304 30.863C19.2304 30.5784 19.381 30.6763 19.454 31.0086C19.4854 31.1516 19.5899 31.34 19.6863 31.4271C19.8544 31.5793 19.8614 31.5781 19.8614 31.3984C19.8614 31.2953 19.9628 31.0905 20.0868 30.9432C20.3965 30.5751 20.3945 30.047 20.0821 29.6757C19.8614 29.4134 19.8582 29.393 20.0019 29.1736C20.1807 28.9008 20.1182 28.5441 19.8391 28.2451C19.5934 27.9819 19.4107 27.9867 19.4107 28.2566C19.4107 28.5335 19.1973 28.7074 18.9387 28.6411C18.8264 28.6124 18.464 28.3909 18.1332 28.1489C17.8023 27.9069 17.2953 27.6199 17.0064 27.5113C16.7175 27.4027 16.3797 27.2352 16.2558 27.1392L16.0304 26.9645L16.3033 26.9625C16.4535 26.9615 16.6664 27.0238 16.7765 27.1009C17.2556 27.4364 16.855 26.7934 16.3372 26.3958C15.9682 26.1125 15.8952 26.008 15.8952 25.7634C15.8952 25.3644 16.166 24.8856 16.5354 24.6315C17.1527 24.2067 18.0586 24.5762 18.0586 25.2529C18.0586 25.6462 17.7536 25.9115 17.3724 25.8496C16.9907 25.7876 16.9858 25.8846 17.3551 26.1953C17.5823 26.3865 17.7058 26.4274 17.941 26.3892C18.2866 26.3332 18.3144 26.4249 18.1043 26.9279C18.0302 27.1051 17.9884 27.2805 18.0113 27.3175C18.0342 27.3546 18.3729 27.4115 18.7641 27.4442C19.1551 27.4768 19.6736 27.5615 19.9161 27.6325C20.1587 27.7035 20.702 27.8215 21.1234 27.8947C21.6651 27.9888 22.0946 28.1356 22.589 28.3956C23.3485 28.795 23.5113 28.8265 23.7772 28.6253C23.8735 28.5525 24.1246 28.493 24.3353 28.493C24.5461 28.493 24.7406 28.4571 24.7676 28.4133C24.7948 28.3695 24.9999 28.2476 25.2236 28.1424C25.4474 28.0372 25.6304 27.9133 25.6304 27.867C25.6304 27.8207 25.7927 27.5953 25.991 27.3662C26.1893 27.1371 26.3516 26.9086 26.3516 26.8585C26.3516 26.8084 26.4124 26.7065 26.4868 26.6322C26.668 26.451 26.6573 26.2504 26.4347 25.6555C26.2058 25.0436 25.9337 24.7081 25.4799 24.478C25.023 24.2463 24.8192 24.0753 24.8192 23.9237C24.8192 23.8273 24.8597 23.821 24.9995 23.8958C25.1666 23.9852 25.1797 23.9643 25.1797 23.6105C25.1797 23.3136 25.1557 23.2528 25.0716 23.3369C24.906 23.5025 24.8004 23.4657 24.8642 23.2648C24.9143 23.1073 24.8805 23.0845 24.5967 23.0845C24.3 23.0845 24.2803 23.1 24.3685 23.2648C24.4771 23.4677 24.4354 23.4873 24.1822 23.3518C24.0232 23.2667 24.0079 23.2905 24.0079 23.6222C24.0079 23.997 24.0737 24.0643 24.2588 23.8793C24.424 23.7141 24.4702 23.8391 24.3221 24.0505C24.2493 24.1545 24.0136 24.3248 23.7983 24.429C23.2627 24.6883 23.0476 24.942 22.7495 25.6658L22.4945 26.2845L22.7188 26.6754L22.943 27.0663L22.7386 27.2839C22.4548 27.586 21.9396 27.5696 20.9114 27.2256C20.0187 26.9269 19.591 26.6131 19.591 26.2566C19.591 26.0624 19.6083 26.0514 19.7409 26.1608C19.8582 26.2576 19.899 26.26 19.9289 26.1713C19.9563 26.0898 20.0312 26.1087 20.1968 26.2389C20.3231 26.3383 20.4557 26.4197 20.4913 26.4197C20.5269 26.4197 20.5362 26.2067 20.5119 25.9465C20.4685 25.4814 20.4708 25.4759 20.6449 25.631C20.8419 25.8063 21.3122 25.8388 21.5801 25.6954C21.8223 25.5658 21.7986 25.4843 21.484 25.3656L21.2135 25.2636V24.4476C21.2135 23.664 21.2025 23.619 20.9347 23.3141C20.78 23.1378 20.5027 22.9506 20.3112 22.8933C20.1216 22.8365 19.9839 22.7444 20.0054 22.6886C20.0316 22.6203 19.9152 22.5975 19.648 22.6187C19.3087 22.6457 19.2081 22.6105 18.9481 22.3743C18.6632 22.1151 18.6572 22.0981 18.8497 22.0956C19.0506 22.093 19.0518 22.0872 18.9081 21.8093C18.7137 21.4332 18.7592 20.3373 18.9835 19.9949L19.1404 19.7554L19.4566 19.942C19.6305 20.0446 19.8278 20.1074 19.8951 20.0816C19.9898 20.0453 20.0279 20.2053 20.0647 20.7948C20.1145 21.5931 20.2006 21.7846 20.5742 21.9266C20.8364 22.0263 21.3631 21.791 21.4433 21.5383C21.4699 21.4544 21.4455 21.1205 21.389 20.7964C21.2311 19.8898 21.3424 19.8845 21.6088 20.7859C21.9358 21.8926 22.0162 22.0281 22.4253 22.1629C22.746 22.2686 22.7915 22.2619 22.984 22.0811C23.3376 21.7488 23.3237 21.6091 22.8281 20.515C22.5694 19.9438 22.3764 19.4579 22.3992 19.4351C22.422 19.4123 22.6993 19.8636 23.0155 20.4381C23.3319 21.0124 23.6468 21.5387 23.7155 21.6075C23.7843 21.6761 23.9988 21.7324 24.1923 21.7324C24.4907 21.7324 24.565 21.692 24.6816 21.4665C24.7573 21.3202 24.8192 21.1211 24.8192 21.0239C24.8192 20.9268 24.4923 20.393 24.0929 19.8377C23.6934 19.2825 23.3834 18.8114 23.4041 18.7907C23.4246 18.7702 23.8439 19.2309 24.3358 19.8146C25.1844 20.8219 25.2489 20.8774 25.5994 20.9032C26.0566 20.9369 26.2614 20.7578 26.2614 20.3245C26.2614 19.9811 26.12 19.8152 25.29 19.1842C25.0284 18.9854 24.8341 18.8029 24.8581 18.7789C24.8822 18.7549 25.1875 18.947 25.5366 19.2057C26.233 19.722 26.6974 19.852 27.1602 19.6602C27.391 19.5647 27.4233 19.5126 27.3766 19.3106C27.2875 18.9255 27.0876 18.6736 26.6388 18.3809C26.3556 18.1963 26.2907 18.1246 26.4417 18.1634C27.0773 18.3271 27.5343 18.3295 27.886 18.1709C28.0832 18.082 28.2445 17.9779 28.2445 17.9397C28.2445 17.8129 27.815 17.3573 27.5737 17.2281L27.3361 17.101L27.7997 16.9823C28.3063 16.8527 28.7854 16.5584 28.7854 16.3769C28.7854 16.1867 28.4834 15.9723 27.9699 15.7978L27.4848 15.6329L27.9122 15.4873C28.5393 15.2736 29.1434 14.7251 29.1453 14.3676C29.1461 14.2226 28.5758 14.0718 28.0192 14.0699L27.5685 14.0683L28.1093 13.7701C28.6441 13.4751 29.2873 12.7321 29.2076 12.5012C29.187 12.4411 28.906 12.4045 28.4866 12.4071L27.7995 12.4116L28.2089 12.0193C28.638 11.6081 28.8755 11.1677 28.8755 10.7832C28.8755 10.5851 28.8368 10.5553 28.5826 10.5579C28.4214 10.5595 28.0729 10.6356 27.8081 10.7271L27.3266 10.8934L27.7363 10.4762C27.9617 10.2468 28.2088 9.90835 28.2855 9.72401C28.4547 9.31702 28.4684 8.39561 28.3085 8.17692C28.2031 8.03261 28.1 8.10571 27.1907 8.97088C26.6398 9.49505 26.1625 9.92394 26.1298 9.92394C26.0973 9.92394 26.2624 9.6747 26.4968 9.37003C27.6399 7.8846 27.9131 6.46217 27.1936 5.74267L26.9543 5.50344L26.4697 6.41611C25.9484 7.39829 25.2631 8.50774 24.7035 9.27583C24.4519 9.62125 24.3248 9.72942 24.2466 9.66461C24.1678 9.59917 24.0711 9.70346 23.8904 10.0486C23.5768 10.6475 22.8666 11.3705 22.7895 11.1694C22.7225 10.9949 20.6423 13.0825 20.3198 13.6479C20.0526 14.1163 20.0945 14.3398 20.5492 14.8709C20.9936 15.3901 20.9963 15.7069 20.5598 16.107C20.1635 16.4702 19.7053 16.5722 19.2496 16.3988C18.8207 16.2355 18.7855 16.0244 19.1333 15.6995C19.3373 15.509 19.4104 15.3604 19.4094 15.1385C19.4073 14.6898 19.3032 14.5649 19.0567 14.7157C18.8859 14.8201 18.8436 14.8159 18.7461 14.6848C18.6841 14.6014 18.5293 14.507 18.4021 14.4751L18.1709 14.417L18.3852 14.2027C18.6625 13.9255 18.6821 13.6593 18.4148 13.8023C18.1348 13.9522 17.6311 13.7521 17.421 13.4076C17.0618 12.8186 17.2324 11.8994 17.8737 10.9673C18.1044 10.6319 18.1957 10.568 18.4416 10.5693C18.6028 10.5701 18.9409 10.5424 19.1929 10.5078C19.7351 10.4331 20.1807 10.615 20.3138 10.9649C20.4136 11.2276 20.5497 11.2511 20.6236 11.0183C20.7066 10.7569 20.589 10.563 20.2335 10.3752C19.9772 10.2397 19.9477 10.2015 20.0972 10.1983C20.202 10.1962 20.5265 10.3589 20.8183 10.5599C21.2769 10.876 21.3975 10.9195 21.7093 10.881C21.9635 10.8496 22.143 10.7547 22.3178 10.5591C22.6133 10.2284 22.6728 9.90691 22.3854 10.1944C22.1473 10.4324 21.8305 10.4218 21.0507 10.1493C20.696 10.0254 20.2832 9.92394 20.1336 9.92394C19.8151 9.92394 19.7712 9.78882 20.0642 9.71031C20.5186 9.58862 21.1859 9.65091 21.4227 9.83714L21.6561 10.0208L21.7954 9.7515C22.1437 9.07797 21.8195 8.42905 21.0504 8.26012C20.7791 8.20054 20.1809 7.76237 20.3666 7.75921C20.411 7.7584 20.3897 7.72135 20.3194 7.67682C20.2114 7.6085 20.222 7.52241 20.387 7.12534C20.6241 6.55475 20.6379 6.1237 20.4248 5.93945C20.2045 5.74889 19.7049 5.59376 19.5289 5.66127C19.4115 5.70625 19.3926 5.67615 19.4354 5.51254C19.4649 5.39977 19.4522 5.21039 19.407 5.09176C19.3553 4.95565 19.3575 4.87606 19.413 4.87606C19.4613 4.87606 19.5009 4.7925 19.5009 4.69046C19.5009 4.57174 19.4629 4.52829 19.3954 4.57003C19.3245 4.61384 19.3088 4.58607 19.3475 4.48521C19.3918 4.36965 19.3527 4.33521 19.1773 4.33521C19.0483 4.33521 18.9735 4.37433 19.0051 4.42535C19.0357 4.47493 19.0178 4.51549 18.9653 4.51549C18.9129 4.51549 18.8699 4.59662 18.8699 4.69577C18.8699 4.79493 18.9006 4.87606 18.9381 4.87606C18.9757 4.87606 18.9918 5.0585 18.9742 5.28142C18.9555 5.51525 18.9047 5.66371 18.8539 5.63234C18.8055 5.6025 18.586 5.64667 18.3662 5.73068C17.7434 5.96847 17.6515 6.2827 17.9807 7.048C18.0866 7.29417 18.1462 7.52277 18.1131 7.55585C18.0204 7.64852 16.9879 7.10722 16.4586 6.68852C15.8782 6.22925 15.8618 6.07033 16.2978 5.12665C16.8955 3.83295 16.7894 3.3424 15.8345 2.98472C15.4348 2.83509 15.2719 2.81138 15.1528 2.88557C14.95 3.01194 14.9331 3.00942 14.8697 2.84428C14.8404 2.76802 14.8639 2.62957 14.9219 2.53672C15.0048 2.40394 14.9961 2.28829 14.881 1.99515C14.7391 1.63387 14.7399 1.62405 14.9093 1.67786C15.0554 1.72419 15.084 1.6894 15.084 1.46522C15.084 1.23184 15.0577 1.2039 14.8812 1.24942C14.7005 1.29602 14.6919 1.28521 14.802 1.15081C14.9138 1.0146 14.893 1 14.5882 1C14.2834 1 14.2626 1.0146 14.3744 1.15081ZM6.28036 4.26039C5.67398 4.93843 5.53237 5.05634 5.32397 5.05634C5.20354 5.05634 4.96719 5.14891 4.79872 5.26204C4.3646 5.55365 4.33053 5.99236 4.71353 6.35932C4.87272 6.51184 4.98819 6.71493 4.98819 6.84248C4.98819 7.04809 4.96503 7.05873 4.63286 7.00563C4.3362 6.95822 4.25571 6.98012 4.14493 7.13832C4.04352 7.283 4.03378 7.38945 4.10346 7.58939C4.21857 7.91966 4.32755 7.99259 4.31881 7.73352C4.31268 7.5518 4.34828 7.53773 4.74418 7.56559C5.0329 7.58587 5.24969 7.54783 5.3977 7.45084C5.66587 7.27506 5.6702 7.30724 5.4389 7.76056C5.20525 8.21857 5.21165 8.35279 5.47991 8.62096C5.77837 8.9195 5.86013 8.89958 5.81794 8.53857C5.79387 8.33206 5.85733 8.09435 6.01634 7.79563C6.30533 7.25271 6.30659 7.00491 6.02247 6.54366C5.80307 6.18743 5.75033 5.79919 5.87752 5.47612C5.93089 5.34064 6.60757 5.02163 7.01636 4.93924C7.1687 4.9086 7.17231 5.4059 7.02294 5.84426C6.84293 6.3723 6.84275 6.76424 7.02231 7.0206C7.2208 7.304 7.79581 7.57613 8.3006 7.62562C8.71759 7.66655 8.72102 7.66483 8.42968 7.56406C8.26508 7.507 8.01152 7.34943 7.8663 7.21377C7.54405 6.9127 7.52277 6.54366 7.79392 5.95775C8.27392 4.92059 8.23326 4.72128 7.45508 4.29348C7.13598 4.11815 6.79867 3.97465 6.70538 3.97465C6.61217 3.97465 6.42089 4.10319 6.28036 4.26039ZM21.8169 4.24047C21.0033 4.70335 20.9438 4.90553 21.3424 5.85246C21.7392 6.79515 21.6284 7.17465 20.853 7.52791L20.5375 7.67159L20.9289 7.62355C21.3783 7.56838 21.9041 7.32257 22.147 7.05404C22.3325 6.84888 22.3234 6.49697 22.1085 5.5751C21.9512 4.90012 22.0438 4.79015 22.5513 5.04904C22.7536 5.15225 22.98 5.23662 23.0547 5.23662C23.4224 5.23662 23.4738 5.95288 23.1516 6.58873C22.8703 7.14382 22.8711 7.22918 23.1622 7.76417C23.3304 8.07308 23.3874 8.29041 23.3606 8.52C23.3164 8.89931 23.3947 8.92284 23.6965 8.62096C23.9641 8.35342 23.9766 8.07651 23.7375 7.71549C23.4973 7.35277 23.5111 7.27552 23.7844 7.45454C23.9461 7.56045 24.1296 7.59002 24.422 7.55702C24.7719 7.51763 24.8423 7.53701 24.8982 7.68809C24.9588 7.85197 24.9722 7.84692 25.0749 7.62166C25.1669 7.41956 25.1619 7.34114 25.0452 7.16293C24.9227 6.97607 24.8575 6.95543 24.5462 7.00518C24.2111 7.05882 24.1882 7.04836 24.1882 6.84248C24.1882 6.71493 24.3037 6.51184 24.4629 6.35932C24.8459 5.99236 24.8118 5.55365 24.3777 5.26204C24.2092 5.14891 23.9741 5.05634 23.8553 5.05634C23.6414 5.05634 23.5058 4.94222 22.9614 4.30348C22.6245 3.9083 22.4205 3.89713 21.8169 4.24047ZM13.6417 6.81354C13.4186 6.98427 12.9724 7.23108 12.6502 7.36187C11.6526 7.76705 11.6528 7.76669 12.454 7.72532C13.1802 7.68782 13.1995 7.69197 13.0531 7.85377C12.9698 7.94571 12.7236 8.09417 12.5058 8.18368C11.987 8.39705 12.0015 8.52 12.5375 8.45131L12.9657 8.39642L12.7063 8.60933C12.5614 8.72832 12.4746 8.86704 12.5095 8.92374C12.612 9.08951 13.237 9.3739 13.6407 9.43844C14.0329 9.50118 13.9813 9.64946 13.5664 9.65217C13.3565 9.65352 13.3568 9.65541 13.6686 10.2169C14.0288 10.8655 14.3997 11.8598 14.5009 12.4479L14.5707 12.8535L14.7376 12.1775C14.8293 11.8056 15.0953 11.1161 15.3288 10.6451C15.5623 10.1741 15.7682 9.75826 15.7867 9.72113C15.8051 9.68399 15.7255 9.65289 15.6098 9.65217C15.195 9.64937 15.1436 9.50118 15.5357 9.43844C15.9394 9.3739 16.5644 9.08951 16.6668 8.92374C16.7018 8.86704 16.615 8.72832 16.4701 8.60933L16.2107 8.39642L16.6389 8.45131C17.1749 8.52 17.1894 8.39705 16.6705 8.18368C16.4528 8.09417 16.2072 7.94643 16.1247 7.8553C15.9802 7.69557 16.003 7.69106 16.7689 7.7273L17.5628 7.7648L16.9612 7.54882C16.3296 7.32221 15.8414 7.05647 15.4151 6.70727C15.2089 6.53843 15.0541 6.49904 14.6038 6.50085C14.11 6.50283 14.0017 6.53807 13.6417 6.81354ZM13.8075 14.0185C13.0405 14.5438 12.434 14.767 11.3563 14.921C10.6647 15.0198 10.6298 15.0361 10.5616 15.291C10.0245 17.2986 11.107 21.8419 12.6127 23.9C13.1835 24.6802 14.0511 25.6569 14.3838 25.8938L14.6544 26.0865L15.3772 25.331C16.7173 23.9301 17.3086 22.9395 17.9278 21.0577C18.6215 18.9496 18.922 16.7256 18.6704 15.5623L18.5544 15.0258L17.7797 14.9144C16.733 14.7639 16.0941 14.5244 15.2975 13.9839C14.9292 13.734 14.5986 13.5332 14.563 13.5376C14.5273 13.5419 14.1872 13.7584 13.8075 14.0185ZM12.6938 16.2009C13.0133 16.7543 13.0064 16.7472 13.0939 16.6055C13.1504 16.5142 13.2848 16.5646 13.675 16.8237C13.9541 17.0091 14.1826 17.1912 14.1826 17.2285C14.1826 17.3794 13.8729 17.4007 13.6644 17.2641C13.3663 17.0688 13.1813 17.2353 13.4709 17.4382C13.5837 17.5171 13.658 17.5958 13.6363 17.613C13.6145 17.6303 13.4625 17.737 13.2985 17.8502C13.0151 18.0461 13.008 18.0645 13.1531 18.2248C13.2945 18.381 13.2948 18.3976 13.1566 18.4506C13.0745 18.4821 12.8816 18.4557 12.7276 18.392C12.3496 18.2354 12.1762 17.799 12.2146 17.1012C12.2433 16.5787 12.2344 16.5525 12.0002 16.469C11.833 16.4093 11.6839 16.4147 11.527 16.4862C11.3282 16.5767 11.2981 16.6473 11.2986 17.0206C11.2992 17.6285 11.4459 18.0836 11.7543 18.4348C12.0885 18.8154 12.4544 18.889 13.1333 18.7121C13.6344 18.5817 13.6679 18.5839 13.9196 18.7631C14.0642 18.8661 14.1826 18.9631 14.1826 18.9787C14.1826 18.9943 13.9189 19.1788 13.5966 19.3887C13.2744 19.5987 13.0107 19.7839 13.0107 19.8004C13.0107 19.8169 13.2744 20.0185 13.5966 20.2484C13.9189 20.4784 14.1826 20.6828 14.1826 20.7028C14.1826 20.7227 13.9565 20.8891 13.6802 21.0726C13.274 21.3423 13.1627 21.3817 13.0992 21.2789C13.0559 21.2089 13.0031 21.1708 12.9816 21.1942C12.8711 21.3149 12.5538 22.0266 12.593 22.0659C12.6685 22.1413 13.5516 21.9924 13.5516 21.9042C13.5516 21.8593 13.511 21.8225 13.4614 21.8225C13.2605 21.8225 13.4059 21.6679 13.9541 21.2984L14.5313 20.9094L15.1302 21.3112C15.4668 21.537 15.6866 21.7393 15.6319 21.773C15.4309 21.8974 15.5489 21.9879 15.9911 22.0487C16.2422 22.0832 16.4682 22.091 16.4932 22.0659C16.5324 22.0266 16.2151 21.3149 16.1046 21.1942C16.0832 21.1708 16.0304 21.2089 15.9871 21.2789C15.9235 21.3817 15.8122 21.3423 15.406 21.0726C15.1298 20.8891 14.9037 20.7212 14.9037 20.6994C14.9037 20.6777 15.1673 20.4717 15.4896 20.2417C15.8119 20.0118 16.0755 19.8117 16.0755 19.7971C16.0755 19.7825 15.8119 19.5987 15.4896 19.3887C15.1673 19.1788 14.9037 18.9943 14.9037 18.9787C14.9037 18.9631 15.022 18.8661 15.1666 18.7631C15.4184 18.5839 15.4518 18.5817 15.9529 18.7121C16.6319 18.889 16.9977 18.8154 17.3319 18.4348C17.6404 18.0836 17.787 17.6285 17.7877 17.0206C17.7881 16.6473 17.758 16.5767 17.5592 16.4862C17.4019 16.4145 17.2537 16.4093 17.086 16.4695C16.852 16.5534 16.8429 16.5801 16.8701 17.1055C16.9063 17.8057 16.7353 18.2359 16.3586 18.392C16.2047 18.4557 16.0117 18.4821 15.9297 18.4506C15.7919 18.3978 15.7923 18.3804 15.9355 18.2222C16.0823 18.0601 16.0817 18.0459 15.9253 17.9551C15.8344 17.9025 15.6807 17.7974 15.5837 17.7217C15.4099 17.5859 15.4104 17.5818 15.6138 17.4393C15.9046 17.2356 15.721 17.0681 15.4218 17.2641C15.2133 17.4007 14.9037 17.3794 14.9037 17.2285C14.9037 17.1912 15.1321 17.0091 15.4113 16.8237C15.8015 16.5646 15.9358 16.5142 15.9923 16.6055C16.077 16.7426 16.0707 16.7482 16.3296 16.2963C16.6007 15.8231 16.583 15.7653 16.1882 15.832C15.589 15.933 15.5157 15.9671 15.6216 16.0946C15.6954 16.1837 15.5818 16.2993 15.1336 16.5914C14.8123 16.8007 14.5175 16.9581 14.4787 16.941C14.4397 16.9238 14.1745 16.7519 13.8893 16.5589C13.4962 16.2928 13.3937 16.1802 13.4658 16.0932C13.5736 15.9635 13.4841 15.9251 12.8383 15.8244L12.4406 15.7623L12.6938 16.2009ZM14.3241 17.5757C14.2969 17.6196 14.3351 17.7057 14.4089 17.767C14.5154 17.8554 14.5708 17.8554 14.6773 17.767C14.8407 17.6314 14.7736 17.4958 14.5431 17.4958C14.4498 17.4958 14.3512 17.5317 14.3241 17.5757ZM13.7301 17.9937C13.6673 18.0693 13.6419 18.157 13.6735 18.1887C13.7621 18.2771 14.2002 18.048 14.1372 17.9461C14.0556 17.814 13.8603 17.8369 13.7301 17.9937ZM14.949 17.9461C14.886 18.048 15.3242 18.2771 15.4127 18.1887C15.4913 18.1101 15.2704 17.8563 15.1234 17.8563C15.0579 17.8563 14.9795 17.8967 14.949 17.9461ZM2.80796 18.1883C2.87295 18.2144 2.95074 18.2111 2.98067 18.1812C3.01059 18.1513 2.95741 18.13 2.8624 18.1339C2.75739 18.1382 2.73602 18.1596 2.80796 18.1883ZM14.2352 18.3354C14.0828 18.4469 14.0872 18.4632 14.3081 18.6079C14.5298 18.7531 14.5565 18.7531 14.7781 18.6079C14.9991 18.4632 15.0035 18.4469 14.851 18.3354C14.7619 18.2703 14.6233 18.2169 14.5431 18.2169C14.4629 18.2169 14.3244 18.2703 14.2352 18.3354ZM1.2624 18.4573C1.17271 18.547 1.18984 18.7577 1.28683 18.7577C1.33334 18.7577 1.36525 18.6766 1.35777 18.5775C1.34245 18.3737 1.34398 18.3756 1.2624 18.4573ZM3.68115 19.1783C3.38369 19.4063 3.02538 19.6332 2.88494 19.6825C2.68356 19.7532 2.64039 19.8127 2.68086 19.9636C2.70907 20.0688 2.73278 20.2181 2.73341 20.2955C2.73413 20.3727 2.78668 20.5071 2.85023 20.5941C2.9502 20.7307 2.96129 20.7042 2.93217 20.3985C2.90026 20.0645 2.92757 20.0195 3.42497 19.5868C3.71459 19.3347 4.05298 19.0466 4.17693 18.9461C4.63367 18.5764 4.20397 18.7776 3.68115 19.1783ZM4.96322 19.6762C3.91831 20.9454 3.90641 20.9547 3.41028 20.8988C3.02375 20.8552 3.00329 20.8637 3.06062 21.0446C3.17393 21.4023 4.62393 24.3004 4.76149 24.4442C4.83658 24.5227 4.89805 24.6546 4.89805 24.7371C4.89805 24.8197 4.94105 24.8873 4.99351 24.8873C5.04597 24.8873 5.06202 24.9309 5.02912 24.9841C4.99622 25.0374 5.04642 25.1692 5.14062 25.2771C5.32199 25.4849 5.45215 25.7516 5.5879 26.1944C5.66758 26.4542 5.68913 26.4638 6.13794 26.4403C6.59721 26.4161 6.60793 26.4214 6.78091 26.7605C6.96228 27.116 7.2757 27.3211 7.63752 27.3211C7.89352 27.3211 8.70055 27.0477 9.2066 26.7896C9.52985 26.6246 9.58538 26.5549 9.58538 26.3138C9.58538 26.0369 9.58177 26.0345 9.40509 26.1944C9.23716 26.3463 9.22481 26.3469 9.22481 26.2018C9.22481 26.0621 9.20029 26.0654 8.98729 26.2329C8.66134 26.4893 8.60185 26.4684 8.67928 26.1248C8.71588 25.9626 8.71984 25.7558 8.68811 25.6653C8.63565 25.5159 8.61943 25.514 8.5109 25.6448C8.35171 25.8366 7.74984 25.8333 7.55613 25.6395C7.41731 25.5007 7.42623 25.4823 7.68485 25.3735L7.96284 25.2566V24.5267C7.96284 23.5151 8.26571 23.0104 8.96503 22.8568C9.12259 22.8222 9.22013 22.7517 9.19633 22.6896C9.16793 22.6156 9.2505 22.5934 9.46242 22.6181C9.83236 22.6613 10.2799 22.4914 10.4032 22.2609C10.4769 22.1234 10.4608 22.093 10.315 22.093C10.1495 22.093 10.1461 22.0755 10.2662 21.8451C10.4395 21.5129 10.4314 20.5611 10.2516 20.1117C10.1719 19.9124 10.093 19.7493 10.0766 19.7493C10.06 19.7493 9.90177 19.8347 9.725 19.939C9.54824 20.0432 9.34804 20.1072 9.28007 20.0812C9.18326 20.0441 9.14792 20.1987 9.11646 20.797C9.085 21.3961 9.03903 21.597 8.90274 21.7308C8.59779 22.0302 8.31223 22.0384 7.97681 21.7575L7.67529 21.5051L7.774 20.9712C7.997 19.7647 7.84467 19.7618 7.51367 20.9662C7.26326 21.8775 7.14355 22.0618 6.72791 22.1766C6.43531 22.2574 6.36654 22.2447 6.1877 22.0766C5.83894 21.749 5.85309 21.6047 6.33778 20.5487C6.59099 19.997 6.78596 19.5088 6.771 19.4639C6.75604 19.419 6.46939 19.8868 6.13388 20.5036C5.79847 21.1202 5.46098 21.6491 5.384 21.6787C5.30693 21.7082 5.10628 21.7324 4.93808 21.7324C4.69064 21.7324 4.606 21.6816 4.49476 21.4665C4.41913 21.3202 4.35721 21.1211 4.35721 21.0239C4.35721 20.9268 4.68406 20.393 5.08347 19.8377C5.48298 19.2825 5.79153 18.8099 5.76917 18.7875C5.74673 18.7651 5.38409 19.1651 4.96322 19.6762ZM1.4727 19.2986C1.4727 19.3482 1.53355 19.3887 1.60791 19.3887C1.68228 19.3887 1.74312 19.3482 1.74312 19.2986C1.74312 19.249 1.68228 19.2085 1.60791 19.2085C1.53355 19.2085 1.4727 19.249 1.4727 19.2986ZM14.0699 19.4906C13.8343 19.6446 13.6424 19.7963 13.6433 19.8275C13.6442 19.8589 13.8471 20.0167 14.094 20.1782L14.5431 20.4718L14.9922 20.1782C15.2392 20.0167 15.442 19.8583 15.4429 19.8263C15.4444 19.7713 14.6144 19.2073 14.5352 19.2095C14.5148 19.2101 14.3054 19.3365 14.0699 19.4906ZM14.1419 27.393C14.053 27.7749 13.8233 28.5023 13.6317 29.0095C13.2056 30.1369 13.1164 30.7539 13.3117 31.2213C13.389 31.4064 13.489 31.5577 13.534 31.5577C13.579 31.5577 13.6432 31.2293 13.6767 30.8278C13.7467 29.9876 13.8488 29.4598 14.1366 28.4479C14.3858 27.572 14.4962 26.8177 14.3855 26.7492C14.3405 26.7214 14.2309 27.0111 14.1419 27.393ZM14.7892 26.8051C14.7195 26.9852 14.8823 27.8626 15.2143 29.0979C15.3371 29.5545 15.4652 30.2948 15.4991 30.743C15.5329 31.1911 15.5973 31.5577 15.6424 31.5577C15.7715 31.5577 15.9854 30.965 15.9854 30.607C15.9854 30.428 15.7644 29.6053 15.4943 28.7788C15.2242 27.9523 14.9689 27.1341 14.9271 26.9606C14.868 26.7155 14.8373 26.6808 14.7892 26.8051ZM13.2729 27.5312C13.0952 27.6883 12.7033 28.0293 12.4018 28.2889C11.7864 28.8189 11.614 29.2124 11.8834 29.472C12.0258 29.6091 12.0442 29.6074 12.1407 29.448C12.425 28.978 13.1358 27.9588 13.3881 27.6596C13.7511 27.2287 13.6909 27.1615 13.2729 27.5312ZM15.6027 27.367C15.6565 27.4657 15.9197 27.8204 16.1877 28.1552C16.4556 28.49 16.7659 28.9464 16.8772 29.1693C17.0951 29.6055 17.165 29.6473 17.3344 29.4431C17.5071 29.2351 17.3622 28.8228 16.9955 28.479C16.2953 27.8227 15.5091 27.1949 15.6027 27.367ZM11.1178 30.2327C11.1178 30.4969 11.2772 30.6563 11.5414 30.6563C11.859 30.6563 11.8091 30.339 11.4645 30.1671C11.1062 29.9884 11.1178 29.9862 11.1178 30.2327ZM17.6755 30.1751C17.3634 30.3394 17.3368 30.6563 17.635 30.6563C17.8992 30.6563 18.0586 30.4969 18.0586 30.2327C18.0586 29.9979 18.0223 29.9924 17.6755 30.1751Z" fill="white"/>
</g>
<path d="M60.2862 1.24062H61.9963V15H60.6203V3.32419L55.8045 11.3832H55.608L50.7922 3.32419V15H49.4163V1.24062H51.1263L55.7063 8.90656L60.2862 1.24062ZM66.8278 12.7395L72.6854 5.17188H73.7862V15H72.4888V7.43234L66.6313 15H65.5305V5.17188H66.8278V12.7395ZM84.0776 9.45694V5.17188H85.3749V15H84.0776V10.7149H78.4166V15H77.1193V5.17188H78.4166V9.45694H84.0776ZM91.3813 9.88937L96.6491 15H94.9194L90.0053 10.2628V15H88.708V5.17188H90.0053V9.51591L94.6835 5.17188H96.4526L91.3813 9.88937ZM106.268 13.7617C105.259 14.7445 104.04 15.2359 102.612 15.2359C101.157 15.2359 99.9318 14.7445 98.9359 13.7617C97.94 12.7657 97.442 11.5405 97.442 10.0859C97.442 8.63137 97.94 7.41269 98.9359 6.42987C99.9318 5.43396 101.157 4.936 102.612 4.936C104.053 4.936 105.272 5.43396 106.268 6.42987C107.277 7.41269 107.781 8.63137 107.781 10.0859C107.781 11.5274 107.277 12.7526 106.268 13.7617ZM99.8597 12.8575C100.607 13.6044 101.524 13.9779 102.612 13.9779C103.699 13.9779 104.617 13.6044 105.363 12.8575C106.11 12.0843 106.484 11.1605 106.484 10.0859C106.484 8.99829 106.11 8.081 105.363 7.33406C104.617 6.57402 103.699 6.194 102.612 6.194C101.524 6.194 100.607 6.57402 99.8597 7.33406C99.1128 8.081 98.7393 8.99829 98.7393 10.0859C98.7393 11.1605 99.1128 12.0843 99.8597 12.8575ZM118.68 5.17188H120.173V15H118.876V7.15716L115.436 12.7395H115.279L111.839 7.15716V15H110.542V5.17188H112.036L115.358 10.5577L118.68 5.17188ZM128.093 15.2359C126.612 15.2359 125.38 14.7445 124.397 13.7617C123.414 12.7526 122.923 11.5274 122.923 10.0859C122.923 8.63137 123.414 7.41269 124.397 6.42987C125.38 5.43396 126.612 4.936 128.093 4.936C129.062 4.936 129.934 5.17187 130.707 5.64362C131.48 6.10227 132.043 6.72472 132.397 7.51097L131.336 8.12031C131.074 7.53062 130.648 7.06543 130.058 6.72472C129.482 6.37091 128.826 6.194 128.093 6.194C127.005 6.194 126.088 6.57402 125.341 7.33406C124.594 8.081 124.22 8.99829 124.22 10.0859C124.22 11.1605 124.594 12.0843 125.341 12.8575C126.088 13.6044 127.005 13.9779 128.093 13.9779C128.813 13.9779 129.462 13.8075 130.039 13.4668C130.628 13.1261 131.087 12.6544 131.414 12.0516L132.496 12.6806C132.089 13.4668 131.493 14.0893 130.707 14.5479C129.921 15.0066 129.049 15.2359 128.093 15.2359ZM141.199 9.94834C142.273 10.3415 142.81 11.1081 142.81 12.2481C142.81 13.0606 142.535 13.7223 141.985 14.2334C141.447 14.7445 140.694 15 139.724 15H134.948V5.17188H139.331C140.275 5.17188 141.008 5.4143 141.533 5.89916C142.07 6.38401 142.339 7.01956 142.339 7.80581C142.339 8.78862 141.959 9.5028 141.199 9.94834ZM139.331 6.42987H136.245V9.41762H139.331C140.471 9.41762 141.041 8.90656 141.041 7.88444C141.041 7.42579 140.891 7.07198 140.589 6.823C140.301 6.56092 139.882 6.42987 139.331 6.42987ZM136.245 13.742H139.724C140.301 13.742 140.74 13.6044 141.041 13.3292C141.356 13.054 141.513 12.6675 141.513 12.1695C141.513 11.6977 141.356 11.3308 141.041 11.0687C140.74 10.8067 140.301 10.6756 139.724 10.6756H136.245V13.742ZM148.068 5.17188H152.058V15H150.761V11.226H149.07L146.043 15H144.392L147.498 11.1867C146.698 11.0687 146.043 10.7411 145.532 10.2039C145.034 9.6535 144.785 8.99174 144.785 8.21859C144.785 7.34061 145.1 6.61333 145.729 6.03675C146.384 5.46017 147.164 5.17188 148.068 5.17188ZM148.068 10.0073H150.761V6.42987H148.068C147.504 6.42987 147.033 6.60023 146.652 6.94094C146.272 7.26854 146.082 7.69443 146.082 8.21859C146.082 8.74276 146.272 9.1752 146.652 9.51591C147.033 9.84351 147.504 10.0073 148.068 10.0073ZM160.471 9.94834C161.611 10.3808 162.181 11.167 162.181 12.3071C162.181 13.1327 161.86 13.8272 161.218 14.3907C160.602 14.9541 159.698 15.2359 158.505 15.2359C156.513 15.2359 155.216 14.4496 154.613 12.8771L155.714 12.2285C156.133 13.3947 157.064 13.9779 158.505 13.9779C159.252 13.9779 159.835 13.8206 160.255 13.5061C160.674 13.1785 160.884 12.7526 160.884 12.2285C160.884 11.7567 160.713 11.3832 160.373 11.1081C160.032 10.8198 159.573 10.6756 158.997 10.6756H157.562V9.41762H158.603C159.167 9.41762 159.606 9.28003 159.92 9.00484C160.248 8.71655 160.412 8.32343 160.412 7.82547C160.412 7.35372 160.215 6.96715 159.822 6.66575C159.442 6.35125 158.938 6.194 158.309 6.194C157.09 6.194 156.271 6.68541 155.852 7.66822L154.771 7.03922C155.426 5.63707 156.605 4.936 158.309 4.936C159.357 4.936 160.183 5.21119 160.785 5.76156C161.401 6.29883 161.709 6.96059 161.709 7.74684C161.709 8.75586 161.296 9.4897 160.471 9.94834ZM166.04 8.90656H168.733C169.637 8.90656 170.41 9.19485 171.052 9.77144C171.694 10.3349 172.015 11.0622 172.015 11.9533C172.015 12.8575 171.694 13.5913 171.052 14.1548C170.436 14.7183 169.663 15 168.733 15H164.742V5.17188H166.04V8.90656ZM166.04 13.742H168.733C169.296 13.742 169.768 13.5782 170.148 13.2506C170.528 12.9099 170.718 12.4774 170.718 11.9533C170.718 11.4291 170.528 11.0032 170.148 10.6756C169.768 10.3349 169.296 10.1646 168.733 10.1646H166.04V13.742ZM49.4163 19.2406H54.3303C55.5621 19.2406 56.5908 19.6534 57.4163 20.479C58.2419 21.3045 58.6547 22.3332 58.6547 23.565C58.6547 24.7968 58.2419 25.8255 57.4163 26.651C56.5908 27.4766 55.5621 27.8894 54.3303 27.8894H50.7922V33H49.4163V19.2406ZM50.7922 26.5921H54.3303C55.1821 26.5921 55.8832 26.3103 56.4335 25.7468C56.997 25.1834 57.2788 24.4561 57.2788 23.565C57.2788 22.687 56.997 21.9663 56.4335 21.4028C55.8832 20.8262 55.1821 20.5379 54.3303 20.5379H50.7922V26.5921ZM68.8524 31.7617C67.8434 32.7445 66.6247 33.2359 65.1964 33.2359C63.7418 33.2359 62.5166 32.7445 61.5207 31.7617C60.5247 30.7657 60.0268 29.5405 60.0268 28.0859C60.0268 26.6314 60.5247 25.4127 61.5207 24.4299C62.5166 23.434 63.7418 22.936 65.1964 22.936C66.6378 22.936 67.8565 23.434 68.8524 24.4299C69.8615 25.4127 70.366 26.6314 70.366 28.0859C70.366 29.5274 69.8615 30.7526 68.8524 31.7617ZM62.4445 30.8575C63.1914 31.6044 64.1087 31.9779 65.1964 31.9779C66.284 31.9779 67.2013 31.6044 67.9483 30.8575C68.6952 30.0843 69.0687 29.1605 69.0687 28.0859C69.0687 26.9983 68.6952 26.081 67.9483 25.3341C67.2013 24.574 66.284 24.194 65.1964 24.194C64.1087 24.194 63.1914 24.574 62.4445 25.3341C61.6976 26.081 61.3241 26.9983 61.3241 28.0859C61.3241 29.1605 61.6976 30.0843 62.4445 30.8575ZM77.7065 33.2359C76.2257 33.2359 74.9939 32.7445 74.0111 31.7617C73.0283 30.7526 72.5369 29.5274 72.5369 28.0859C72.5369 26.6314 73.0283 25.4127 74.0111 24.4299C74.9939 23.434 76.2257 22.936 77.7065 22.936C78.6762 22.936 79.5476 23.1719 80.3208 23.6436C81.0939 24.1023 81.6574 24.7247 82.0112 25.511L80.9498 26.1203C80.6877 25.5306 80.2618 25.0654 79.6721 24.7247C79.0955 24.3709 78.4403 24.194 77.7065 24.194C76.6189 24.194 75.7016 24.574 74.9546 25.3341C74.2077 26.081 73.8342 26.9983 73.8342 28.0859C73.8342 29.1605 74.2077 30.0843 74.9546 30.8575C75.7016 31.6044 76.6189 31.9779 77.7065 31.9779C78.4272 31.9779 79.0759 31.8075 79.6525 31.4668C80.2422 31.1261 80.7008 30.6544 81.0284 30.0516L82.1095 30.6806C81.7033 31.4668 81.107 32.0893 80.3208 32.5479C79.5345 33.0066 78.6631 33.2359 77.7065 33.2359ZM89.0457 33.2359C87.5649 33.2359 86.3331 32.7445 85.3503 31.7617C84.3675 30.7526 83.8761 29.5274 83.8761 28.0859C83.8761 26.6314 84.3675 25.4127 85.3503 24.4299C86.3331 23.434 87.5649 22.936 89.0457 22.936C90.0154 22.936 90.8868 23.1719 91.66 23.6436C92.4331 24.1023 92.9966 24.7247 93.3504 25.511L92.289 26.1203C92.0269 25.5306 91.601 25.0654 91.0113 24.7247C90.4347 24.3709 89.7795 24.194 89.0457 24.194C87.9581 24.194 87.0408 24.574 86.2938 25.3341C85.5469 26.081 85.1734 26.9983 85.1734 28.0859C85.1734 29.1605 85.5469 30.0843 86.2938 30.8575C87.0408 31.6044 87.9581 31.9779 89.0457 31.9779C89.7664 31.9779 90.4151 31.8075 90.9917 31.4668C91.5814 31.1261 92.04 30.6544 92.3676 30.0516L93.4487 30.6806C93.0425 31.4668 92.4462 32.0893 91.66 32.5479C90.8737 33.0066 90.0023 33.2359 89.0457 33.2359ZM97.1983 30.7395L103.056 23.1719H104.157V33H102.859V25.4323L97.0017 33H95.901V23.1719H97.1983V30.7395ZM108.787 30.7395L114.645 23.1719H115.745V33H114.448V25.4323L108.59 33H107.49V23.1719H108.787V30.7395Z" fill="white"/>
<path d="M7.502 51H6.6066L5.8201 48.9188H1.8029L1.0164 51H0.121L3.3759 42.53H4.2471L7.502 51ZM3.8115 43.5827L2.1054 48.1202H5.5176L3.8115 43.5827ZM9.87218 47.854L13.115 51H12.0502L9.02518 48.0839V51H8.22658V44.95H9.02518V47.6241L11.905 44.95H12.994L9.87218 47.854ZM15.6093 47.854L18.8521 51H17.7873L14.7623 48.0839V51H13.9637V44.95H14.7623V47.6241L17.6421 44.95H18.7311L15.6093 47.854ZM22.9436 44.8048C23.8067 44.8048 24.5408 45.1113 25.1458 45.7244C25.7589 46.3375 26.0654 47.0877 26.0654 47.975C26.0654 48.8623 25.7589 49.6125 25.1458 50.2256C24.5408 50.8387 23.8067 51.1452 22.9436 51.1452C21.8707 51.1452 21.056 50.7015 20.4994 49.8142V53.42H19.7008V44.95H20.4994V46.1358C21.056 45.2485 21.8707 44.8048 22.9436 44.8048ZM21.1891 49.6811C21.6489 50.1409 22.2136 50.3708 22.8831 50.3708C23.5526 50.3708 24.1173 50.1409 24.5771 49.6811C25.0369 49.2052 25.2668 48.6365 25.2668 47.975C25.2668 47.3055 25.0369 46.7408 24.5771 46.281C24.1173 45.8131 23.5526 45.5792 22.8831 45.5792C22.2136 45.5792 21.6489 45.8131 21.1891 46.281C20.7293 46.7408 20.4994 47.3055 20.4994 47.975C20.4994 48.6365 20.7293 49.2052 21.1891 49.6811ZM29.9464 44.8048C30.8498 44.8048 31.5718 45.1234 32.1123 45.7607C32.6689 46.3899 32.9472 47.1361 32.9472 47.9992C32.9472 48.0395 32.9391 48.1646 32.923 48.3743H27.6111C27.6917 48.9793 27.9499 49.4633 28.3855 49.8263C28.8211 50.1893 29.3656 50.3708 30.019 50.3708C30.9386 50.3708 31.5879 50.028 31.9671 49.3423L32.6689 49.7537C32.4027 50.1893 32.0356 50.5321 31.5678 50.7822C31.108 51.0242 30.5877 51.1452 30.0069 51.1452C29.055 51.1452 28.2806 50.8467 27.6837 50.2498C27.0867 49.6529 26.7883 48.8946 26.7883 47.975C26.7883 47.0635 27.0827 46.3092 27.6716 45.7123C28.2604 45.1073 29.0187 44.8048 29.9464 44.8048ZM29.9464 45.5792C29.3172 45.5792 28.7888 45.7647 28.3613 46.1358C27.9418 46.5069 27.6917 46.9949 27.6111 47.5999H32.1244C32.0356 46.9546 31.7896 46.4585 31.3863 46.1116C30.9668 45.7567 30.4868 45.5792 29.9464 45.5792ZM38.8212 44.95V50.2256H39.6682V52.6214H38.8696V51H33.9328V52.6214H33.1342V50.2256H33.8723C34.2837 49.6771 34.4894 48.9148 34.4894 47.9387V44.95H38.8212ZM34.8403 50.2256H38.0226V45.7244H35.288V47.9387C35.288 48.8744 35.1387 49.6367 34.8403 50.2256ZM41.4329 49.6085L45.0387 44.95H45.7163V51H44.9177V46.3415L41.3119 51H40.6343V44.95H41.4329V49.6085ZM46.4371 44.95H51.5191V45.7244H49.3774V51H48.5788V45.7244H46.4371V44.95ZM57.0838 50.2377C56.4627 50.8427 55.7125 51.1452 54.8332 51.1452C53.9378 51.1452 53.1836 50.8427 52.5705 50.2377C51.9575 49.6246 51.6509 48.8704 51.6509 47.975C51.6509 47.0796 51.9575 46.3294 52.5705 45.7244C53.1836 45.1113 53.9378 44.8048 54.8332 44.8048C55.7206 44.8048 56.4708 45.1113 57.0838 45.7244C57.705 46.3294 58.0155 47.0796 58.0155 47.975C58.0155 48.8623 57.705 49.6166 57.0838 50.2377ZM53.1392 49.6811C53.599 50.1409 54.1637 50.3708 54.8332 50.3708C55.5028 50.3708 56.0674 50.1409 56.5272 49.6811C56.987 49.2052 57.2169 48.6365 57.2169 47.975C57.2169 47.3055 56.987 46.7408 56.5272 46.281C56.0674 45.8131 55.5028 45.5792 54.8332 45.5792C54.1637 45.5792 53.599 45.8131 53.1392 46.281C52.6794 46.7408 52.4495 47.3055 52.4495 47.975C52.4495 48.6365 52.6794 49.2052 53.1392 49.6811ZM62.9577 47.8903C63.6192 48.1323 63.9499 48.6042 63.9499 49.306C63.9499 49.8061 63.7805 50.2135 63.4417 50.5281C63.111 50.8427 62.6472 51 62.0502 51H59.1099V44.95H61.8082C62.389 44.95 62.8408 45.0992 63.1634 45.3977C63.4942 45.6962 63.6595 46.0874 63.6595 46.5714C63.6595 47.1764 63.4256 47.616 62.9577 47.8903ZM61.8082 45.7244H59.9085V47.5636H61.8082C62.51 47.5636 62.8609 47.249 62.8609 46.6198C62.8609 46.3375 62.7682 46.1197 62.5826 45.9664C62.4052 45.8051 62.147 45.7244 61.8082 45.7244ZM59.9085 50.2256H62.0502C62.4052 50.2256 62.6754 50.1409 62.8609 49.9715C63.0545 49.8021 63.1513 49.5641 63.1513 49.2576C63.1513 48.9672 63.0545 48.7413 62.8609 48.58C62.6754 48.4187 62.4052 48.338 62.0502 48.338H59.9085V50.2256ZM70.1209 46.1358V44.95H70.9195V51H70.1209V49.8142C69.5643 50.7015 68.7496 51.1452 67.6767 51.1452C66.8136 51.1452 66.0755 50.8387 65.4624 50.2256C64.8574 49.6125 64.5549 48.8623 64.5549 47.975C64.5549 47.0877 64.8574 46.3375 65.4624 45.7244C66.0755 45.1113 66.8136 44.8048 67.6767 44.8048C68.7496 44.8048 69.5643 45.2485 70.1209 46.1358ZM66.0432 49.6811C66.503 50.1409 67.0677 50.3708 67.7372 50.3708C68.4068 50.3708 68.9714 50.1409 69.4312 49.6811C69.891 49.2052 70.1209 48.6365 70.1209 47.975C70.1209 47.3055 69.891 46.7408 69.4312 46.281C68.9714 45.8131 68.4068 45.5792 67.7372 45.5792C67.0677 45.5792 66.503 45.8131 66.0432 46.281C65.5834 46.7408 65.3535 47.3055 65.3535 47.975C65.3535 48.6365 65.5834 49.2052 66.0432 49.6811ZM76.6518 47.5878V44.95H77.4504V51H76.6518V48.3622H73.167V51H72.3684V44.95H73.167V47.5878H76.6518ZM83.1806 47.5878V44.95H83.9792V51H83.1806V48.3622H79.6958V51H78.8972V44.95H79.6958V47.5878H83.1806ZM90.629 46.1358V44.95H91.4276V51H90.629V49.8142C90.0724 50.7015 89.2577 51.1452 88.1848 51.1452C87.3217 51.1452 86.5836 50.8387 85.9705 50.2256C85.3655 49.6125 85.063 48.8623 85.063 47.975C85.063 47.0877 85.3655 46.3375 85.9705 45.7244C86.5836 45.1113 87.3217 44.8048 88.1848 44.8048C89.2577 44.8048 90.0724 45.2485 90.629 46.1358ZM86.5513 49.6811C87.0111 50.1409 87.5758 50.3708 88.2453 50.3708C88.9148 50.3708 89.4795 50.1409 89.9393 49.6811C90.3991 49.2052 90.629 48.6365 90.629 47.975C90.629 47.3055 90.3991 46.7408 89.9393 46.281C89.4795 45.8131 88.9148 45.5792 88.2453 45.5792C87.5758 45.5792 87.0111 45.8131 86.5513 46.281C86.0915 46.7408 85.8616 47.3055 85.8616 47.975C85.8616 48.6365 86.0915 49.2052 86.5513 49.6811ZM94.7762 44.95H97.2325V51H96.4339V48.6768H95.3933L93.5299 51H92.5135L94.4253 48.6526C93.9332 48.58 93.5299 48.3783 93.2153 48.0476C92.9087 47.7088 92.7555 47.3014 92.7555 46.8255C92.7555 46.285 92.9491 45.8373 93.3363 45.4824C93.7396 45.1275 94.2196 44.95 94.7762 44.95ZM94.7762 47.9266H96.4339V45.7244H94.7762C94.4293 45.7244 94.1389 45.8293 93.905 46.039C93.671 46.2407 93.5541 46.5028 93.5541 46.8255C93.5541 47.1482 93.671 47.4144 93.905 47.6241C94.1389 47.8258 94.4293 47.9266 94.7762 47.9266ZM107.88 51H107.033V44.103L102.314 51H101.588V42.53H102.435V49.427L107.154 42.53H107.88V51ZM108.845 42.53H114.895V43.3286H112.293V51H111.446V43.3286H108.845V42.53ZM119.617 47.6483H115.261V46.8739H119.617V47.6483ZM122.829 47.854L126.072 51H125.007L121.982 48.0839V51H121.184V44.95H121.982V47.6241L124.862 44.95H125.951L122.829 47.854ZM131.388 50.2377C130.767 50.8427 130.017 51.1452 129.138 51.1452C128.242 51.1452 127.488 50.8427 126.875 50.2377C126.262 49.6246 125.955 48.8704 125.955 47.975C125.955 47.0796 126.262 46.3294 126.875 45.7244C127.488 45.1113 128.242 44.8048 129.138 44.8048C130.025 44.8048 130.775 45.1113 131.388 45.7244C132.009 46.3294 132.32 47.0796 132.32 47.975C132.32 48.8623 132.009 49.6166 131.388 50.2377ZM127.444 49.6811C127.903 50.1409 128.468 50.3708 129.138 50.3708C129.807 50.3708 130.372 50.1409 130.832 49.6811C131.291 49.2052 131.521 48.6365 131.521 47.975C131.521 47.3055 131.291 46.7408 130.832 46.281C130.372 45.8131 129.807 45.5792 129.138 45.5792C128.468 45.5792 127.903 45.8131 127.444 46.281C126.984 46.7408 126.754 47.3055 126.754 47.975C126.754 48.6365 126.984 49.2052 127.444 49.6811ZM138.424 44.95H139.343V51H138.545V46.1721L136.427 49.6085H136.33L134.213 46.1721V51H133.414V44.95H134.334L136.379 48.2654L138.424 44.95ZM140.794 44.95H145.876V51H145.077V45.7244H141.592V51H140.794V44.95ZM152.526 46.1358V44.95H153.324V51H152.526V49.8142C151.969 50.7015 151.154 51.1452 150.082 51.1452C149.218 51.1452 148.48 50.8387 147.867 50.2256C147.262 49.6125 146.96 48.8623 146.96 47.975C146.96 47.0877 147.262 46.3375 147.867 45.7244C148.48 45.1113 149.218 44.8048 150.082 44.8048C151.154 44.8048 151.969 45.2485 152.526 46.1358ZM148.448 49.6811C148.908 50.1409 149.472 50.3708 150.142 50.3708C150.812 50.3708 151.376 50.1409 151.836 49.6811C152.296 49.2052 152.526 48.6365 152.526 47.975C152.526 47.3055 152.296 46.7408 151.836 46.281C151.376 45.8131 150.812 45.5792 150.142 45.5792C149.472 45.5792 148.908 45.8131 148.448 46.281C147.988 46.7408 147.758 47.3055 147.758 47.975C147.758 48.6365 147.988 49.2052 148.448 49.6811ZM159.057 47.5878V44.95H159.855V51H159.057V48.3622H155.572V51H154.773V44.95H155.572V47.5878H159.057ZM162.101 49.6085L165.706 44.95H166.384V51H165.585V46.3415L161.98 51H161.302V44.95H162.101V49.6085ZM169.73 44.95H172.187V51H171.388V48.6768H170.348L168.484 51H167.468L169.38 48.6526C168.888 48.58 168.484 48.3783 168.17 48.0476C167.863 47.7088 167.71 47.3014 167.71 46.8255C167.71 46.285 167.903 45.8373 168.291 45.4824C168.694 45.1275 169.174 44.95 169.73 44.95ZM169.73 47.9266H171.388V45.7244H169.73C169.384 45.7244 169.093 45.8293 168.859 46.039C168.625 46.2407 168.508 46.5028 168.508 46.8255C168.508 47.1482 168.625 47.4144 168.859 47.6241C169.093 47.8258 169.384 47.9266 169.73 47.9266Z" fill="white"/>
<rect x="38" y="1" width="2" height="32" fill="white"/>
<defs>
<clipPath id="clip0_2566_949">
<rect width="29.2958" height="32" fill="white" transform="translate(0 1)"/>
</clipPath>
</defs>
</svg>
