<svg width="128" height="128" viewBox="0 0 128 128" fill="none" xmlns="http://www.w3.org/2000/svg">
<rect width="128" height="128" rx="24" fill="#121212"/>
<path d="M99.3005 8.76298C98.3371 9.20089 96.7606 10.427 95.7972 11.478C94.2207 13.2297 94.0455 14.9814 93.6076 33.2862C93.3448 44.1465 92.8193 52.5544 92.469 51.9413C92.0311 51.3283 89.6664 49.7518 87.214 48.5256C83.2728 46.4236 81.6087 46.0733 75.2152 46.0733C68.8216 46.0733 67.07 46.4236 63.3915 48.3504L59.0123 50.6276L53.1443 44.9347L47.1886 39.1542L42.1964 44.0589C37.9049 48.2629 35.4525 49.7518 26.6942 53.4303C21.0014 55.8826 16.1843 57.9846 16.0091 58.1597C15.834 58.3349 18.1987 64.5533 21.3517 71.9103C27.6577 86.8869 31.2486 91.704 38.1676 94.3315L41.9337 95.8204V102.915C41.9337 112.461 43.0723 116.227 46.5756 118.329C49.9037 120.431 52.5312 120.519 55.9469 118.767C58.2241 117.629 58.7496 117.629 60.9392 118.942C64.2673 120.782 68.9968 119.906 71.7994 116.928C73.6387 115.001 73.9014 113.687 74.1642 106.856L74.5145 99.061H77.4923H80.4702V106.418C80.4702 113.074 80.7329 114.125 82.7473 116.49C85.55 119.906 90.2794 120.957 93.8703 118.942C96.1475 117.629 96.5854 117.629 99.0377 118.855C102.716 120.782 106.92 119.818 109.723 116.49V116.49C111.194 114.736 112 112.52 112 110.231V63.9402V17.1685C112 15.1615 111.246 13.2279 109.887 11.7511L109.635 11.478C107.008 8.58781 102.453 7.44924 99.3005 8.76298ZM105.694 14.2807C107.183 15.7696 107.183 112.286 105.694 113.775C104.205 115.264 101.84 115.089 100.264 113.425C99.1253 112.286 98.8626 109.396 98.8626 95.8204V79.53L93.2573 84.9601C86.163 91.704 81.7839 93.7184 74.6021 93.806H69.0844V102.739C69.0844 112.023 68.121 114.826 64.7052 114.826C61.7274 114.826 61.2019 112.987 61.2019 102.302C61.2019 91.9667 61.2019 91.7916 63.8294 88.9013C68.5589 83.4712 70.3105 79.0921 70.3105 72.3482C70.3105 65.9546 69.2595 62.8892 64.968 57.1963L62.866 54.3937L66.6321 52.642C71.5367 50.3649 78.8937 50.3649 83.7983 52.642C85.9003 53.6054 90.1043 56.7584 93.2573 59.7362L98.8626 65.1664V40.9059C98.8626 25.8416 99.2129 15.9448 99.7384 14.8938C100.789 13.0545 104.118 12.7042 105.694 14.2807ZM63.3915 64.1154C66.8072 70.5965 65.6686 78.6541 60.5013 84.347C56.4724 88.8138 52.9691 90.3027 47.0135 90.2151C39.7441 90.1275 38.8683 89.5144 39.2186 84.7849C39.5689 78.8293 35.8905 74.5377 30.5479 74.5377C29.1466 74.5377 28.7962 73.9247 28.7962 71.4723C28.7962 66.2174 31.0734 62.3637 39.0434 54.2185L46.6632 46.5112L54.458 54.1309C58.7496 58.4225 62.7784 62.8892 63.3915 64.1154ZM25.9936 61.8382C24.855 64.3781 23.9792 64.6409 23.1909 62.5389C22.5779 61.05 23.9792 59.6486 25.906 59.6486C26.7818 59.6486 26.7818 60.1741 25.9936 61.8382ZM33.0002 80.8437C33.6133 81.4568 34.0512 82.683 34.0512 83.6464C34.0512 85.398 32.1244 85.6608 30.5479 83.6464C29.5845 82.4202 29.453 80.4058 30.5479 80.4058C30.5479 79.4424 31.8616 79.7051 33.0002 80.8437ZM93.6076 102.564C93.6076 112.811 93.52 113.162 91.5056 114.038C90.0167 114.738 88.9657 114.738 87.5644 114.038C85.9003 113.074 85.7251 112.286 85.7251 104.841V96.6086L88.3526 95.5576C89.7539 94.9446 91.418 93.9811 91.9435 93.2805C92.469 92.5798 93.0821 92.0543 93.2573 92.0543C93.4324 92.0543 93.6076 96.7838 93.6076 102.564ZM55.9469 102.827C55.9469 111.41 54.7208 114.826 51.6554 114.826C48.6776 114.826 48.0645 112.987 48.0645 104.228V95.6452L50.9547 95.2949C52.4436 95.1197 54.2829 94.857 54.8959 94.857C55.6842 94.6818 55.9469 96.7838 55.9469 102.827Z" fill="white"/>
<path d="M41.671 65.254C37.1167 69.458 37.6422 76.1143 42.722 79.53C46.4881 82.0699 48.7652 82.0699 52.5313 79.53C60.0634 74.4502 56.7353 63.152 47.6267 63.152C44.9116 63.152 43.3351 63.7651 41.671 65.254ZM50.6921 69.7207C52.0058 71.3848 51.2176 75.0633 49.2907 75.7639C46.926 76.6398 44.6488 75.5012 44.0358 73.1365C43.3351 70.509 44.9992 68.407 47.6267 68.407C48.6776 68.407 50.079 69.0201 50.6921 69.7207Z" fill="white"/>
<path d="M27.4824 15.9986C26.4414 14.4413 24.9405 13.2475 23.1887 12.5838C21.437 11.9201 19.5218 11.8196 17.7102 12.2962C15.8986 12.7727 14.2809 13.8027 13.0825 15.2425C11.8842 16.6823 11.1649 18.4601 11.0251 20.3282C10.8853 22.1962 11.3318 24.0613 12.3024 25.6634C13.2731 27.2656 14.7195 28.525 16.4399 29.2659C18.1604 30.0069 20.0692 30.1926 21.9002 29.7971C23.7312 29.4016 25.3932 28.4446 26.6544 27.0596L24.0796 24.7149C23.3064 25.5641 22.2875 26.1507 21.1649 26.3932C20.0424 26.6357 18.8722 26.5218 17.8174 26.0676C16.7627 25.6133 15.876 24.8412 15.2809 23.859C14.6858 22.8768 14.4121 21.7333 14.4978 20.5881C14.5835 19.4429 15.0245 18.353 15.7591 17.4703C16.4938 16.5876 17.4856 15.9561 18.5962 15.664C19.7069 15.3718 20.881 15.4334 21.9549 15.8403C23.0288 16.2472 23.949 16.9791 24.5872 17.9338L27.4824 15.9986Z" fill="white"/>
<path d="M8.13632 110.698C8.35684 112.258 8.88254 113.76 9.6834 115.117C10.4843 116.474 11.5446 117.66 12.8039 118.608C14.0631 119.555 15.4967 120.245 17.0227 120.638C18.5486 121.032 20.1371 121.121 21.6975 120.9L21.0477 116.303C20.0911 116.438 19.1173 116.383 18.1818 116.142C17.2462 115.901 16.3674 115.478 15.5954 114.897C14.8233 114.316 14.1733 113.589 13.6823 112.757C13.1913 111.925 12.869 111.004 12.7338 110.048L8.13632 110.698Z" fill="white"/>
</svg>
